#!OML:ASF F:\VICON\USERDATA\INSTALL\rory3\rory3.ASF
:FULLY-SPECIFIED
:DEGREES
1067
root 2.49064 18.5178 1.08758 -0.496065 -51.6225 -0.0207153
lowerback 4.15606 0.884514 0.273386
upperback 1.02334 1.17294 -0.62276
thorax -1.26036 0.581636 -0.852061
lowerneck -8.12094 0.135264 -4.88322
upperneck 11.8923 0.388146 3.17005
head 4.88537 0.160852 1.80643
rclavicle 1.01765e-013 9.93923e-016
rhumerus -61.6504 -16.3579 -50.2413
rradius 8.62623
rwrist 15.485
rhand -18.9454 -7.01586
rfingers 7.12502
rthumb 7.35784 -36.8679
lclavicle 1.01765e-013 9.93923e-016
lhumerus -68.1139 22.2551 32.03
lradius 4.29813
lwrist 12.2992
lhand -17.1992 38.8507
lfingers 7.12502
lthumb 9.04311 68.6369
rfemur -2.69145 12.4902 23.3584
rtibia 28.6907
rfoot -24.82 -22.6896
rtoes -2.14796
lfemur -13.3724 5.5125 -6.20442
ltibia 39.8341
lfoot -12.2579 11.3354
ltoes -5.83841
1068
root 2.50693 18.515 1.11227 -0.534869 -51.0186 -0.0101942
lowerback 4.12521 0.971594 0.308075
upperback 0.99825 1.28775 -0.793523
thorax -1.26222 0.638751 -1.05214
lowerneck -8.09398 -0.0249299 -4.85366
upperneck 12.1675 0.12828 3.41624
head 4.97569 0.0475369 1.86339
rclavicle 3.58434e-014 4.77083e-015
rhumerus -60.291 -16.8935 -50.2487
rradius 8.44805
rwrist 16.34
rhand -20.2365 -7.70031
rfingers 7.12502
rthumb 6.11149 -37.5922
lclavicle 3.58434e-014 4.77083e-015
lhumerus -66.3453 22.4257 32.8289
lradius 4.29163
lwrist 12.0891
lhand -17.6871 39.2006
lfingers 7.12502
lthumb 8.57228 69.0066
rfemur -2.59914 12.3978 23.3376
rtibia 28.7373
rfoot -24.9776 -23.1015
rtoes -2.30282
lfemur -13.1613 5.4567 -6.33357
ltibia 39.5152
lfoot -13.6336 12.3057
ltoes -4.83357
1069
root 2.52482 18.5041 1.13682 -0.589518 -50.4663 0.0407781
lowerback 4.06692 1.06234 0.215525
upperback 0.963453 1.40323 -0.897042
thorax -1.26262 0.696548 -1.11146
lowerneck -8.20168 -0.182768 -4.84344
upperneck 12.5941 -0.109653 3.55341
head 5.13574 -0.0624928 1.89223
rclavicle -2.85877e-014 7.35503e-015
rhumerus -58.7542 -17.4054 -50.2278
rradius 8.2853
rwrist 17.1289
rhand -21.3737 -8.63042
rfingers 7.12502
rthumb 5.01356 -38.5511
lclavicle -2.85877e-014 7.35503e-015
lhumerus -64.4795 22.7382 33.7461
lradius 4.07583
lwrist 11.5875
lhand -18.6066 39.8643
lfingers 7.12502
lthumb 7.6849 69.7047
rfemur -2.52984 12.2822 23.2625
rtibia 28.8115
rfoot -25.2243 -23.3278
rtoes -2.19646
lfemur -12.9378 5.50401 -6.55741
ltibia 39.2363
lfoot -14.8277 13.8409
ltoes -2.89039
1070
root 2.55036 18.4894 1.16022 -0.188523 -49.8023 -0.313568
lowerback 3.90396 1.01444 0.302169
upperback 0.898091 1.34553 -0.798031
thorax -1.24012 0.667932 -1.05306
lowerneck -8.34159 -0.310799 -5.03653
upperneck 12.9539 -0.257012 3.54692
head 5.27795 -0.146132 1.91482
rclavicle -9.45718e-014 4.77083e-015
rhumerus -56.8789 -17.6426 -50.2188
rradius 8.20969
rwrist 18.0392
rhand -22.5317 -9.55692
rfingers 7.12502
rthumb 3.8953 -39.5011
lclavicle -9.45718e-014 4.77083e-015
lhumerus -62.7414 23.3844 34.7071
lradius 3.65049
lwrist 10.912
lhand -20.3192 40.3992
lfingers 7.12502
lthumb 6.03168 70.2933
rfemur -2.67852 12.0148 23.4125
rtibia 28.9296
rfoot -25.4773 -23.5541
rtoes -1.85818
lfemur -12.9295 5.76169 -6.55241
ltibia 38.9645
lfoot -15.5561 15.5021
ltoes -2.39683
1071
root 2.57765 18.4831 1.18645 0.0400057 -49.1533 -0.481806
lowerback 3.7856 0.923082 0.263825
upperback 0.80766 1.22409 -0.72269
thorax -1.27156 0.607467 -0.947299
lowerneck -8.33954 -0.375187 -5.21539
upperneck 13.2229 -0.326904 3.55206
head 5.36476 -0.191477 1.94289
rclavicle 7.88678e-014 2.18663e-015
rhumerus -54.9359 -17.7061 -50.2747
rradius 8.27305
rwrist 18.9687
rhand -23.5677 -10.0732
rfingers 7.12502
rthumb 2.89482 -40.0333
lclavicle 7.88678e-014 2.18663e-015
lhumerus -60.9737 24.125 35.6291
lradius 3.01858
lwrist 10.0777
lhand -21.9794 40.6267
lfingers 7.12502
lthumb 4.42868 70.5603
rfemur -2.81073 11.6948 23.4248
rtibia 29.0562
rfoot -25.5915 -23.8473
rtoes -2.21057
lfemur -12.9085 6.12128 -6.66342
ltibia 38.7154
lfoot -16.1039 17.0463
ltoes -1.93725
1072
root 2.59668 18.4824 1.21696 -0.209415 -48.6123 -0.194808
lowerback 3.80222 0.931102 -0.0941421
upperback 0.673646 1.21907 -0.788488
thorax -1.42443 0.605675 -0.815798
lowerneck -8.27451 -0.454935 -5.35117
upperneck 13.5926 -0.450057 3.69556
head 5.47459 -0.253206 2.00426
rclavicle 8.2359e-014 1.98785e-016
rhumerus -52.9974 -18.0575 -50.3904
rradius 7.99572
rwrist 19.7882
rhand -24.6493 -10.0211
rfingers 7.12502
rthumb 1.85025 -39.9928
lclavicle 8.2359e-014 1.98785e-016
lhumerus -58.9682 24.6337 36.6267
lradius 2.33285
lwrist 9.22835
lhand -23.181 41.1554
lfingers 7.12502
lthumb 3.26827 71.1101
rfemur -2.73823 11.4806 23.14
rtibia 29.1556
rfoot -25.702 -24.0575
rtoes -2.51618
lfemur -12.6683 6.36954 -7.11483
ltibia 38.5094
lfoot -16.9691 18.7337
ltoes -0.599634
1073
root 2.61193 18.4802 1.2457 -0.356771 -48.0645 -0.0651292
lowerback 3.34966 1.03715 -0.21121
upperback 0.895401 1.35774 -0.942016
thorax -0.941174 0.676007 -0.902031
lowerneck -8.52937 -0.65457 -5.43524
upperneck 13.7898 -0.737927 3.96075
head 5.59393 -0.377995 2.08288
rclavicle 1.32962e-013 1.98785e-015
rhumerus -50.6661 -19.208 -50.6557
rradius 7.51102
rwrist 20.8916
rhand -25.9299 -10.8342
rfingers 7.12502
rthumb 0.613486 -40.813
lclavicle 1.32962e-013 1.98785e-015
lhumerus -56.2096 25.3678 38.0198
lradius 1.85912
lwrist 8.39104
lhand -24.1094 41.9905
lfingers 7.12502
lthumb 2.37169 71.9571
rfemur -2.63913 11.3794 23.0103
rtibia 29.2543
rfoot -25.8421 -24.3724
rtoes -2.73623
lfemur -12.4397 6.63101 -7.45183
ltibia 38.3506
lfoot -17.6711 20.4144
ltoes -0.124855
1074
root 2.63252 18.4763 1.27803 -0.394068 -47.5065 -0.00189207
lowerback 3.04977 1.02841 -0.349565
upperback 0.910579 1.34391 -1.00749
thorax -0.759704 0.669533 -0.884683
lowerneck -8.63692 -0.741277 -5.46041
upperneck 14.0816 -0.867463 4.04882
head 5.7102 -0.437562 2.10754
rclavicle -7.90169e-015 -9.54166e-015
rhumerus -48.3909 -19.7966 -50.9366
rradius 7.36077
rwrist 22.0109
rhand -26.9169 -11.7031
rfingers 7.12502
rthumb -0.339793 -41.6825
lclavicle -7.90169e-015 -9.54166e-015
lhumerus -54.081 26.0565 39.2009
lradius 1.8163
lwrist 7.33326
lhand -24.7238 42.5272
lfingers 7.12502
lthumb 1.77836 72.4996
rfemur -2.60637 11.2653 22.8946
rtibia 29.3654
rfoot -26.0053 -24.6732
rtoes -2.86499
lfemur -12.3194 7.00191 -7.7673
ltibia 38.2441
lfoot -17.9573 21.9114
ltoes 0.00861437
1075
root 2.66191 18.4686 1.31165 -0.371142 -46.9345 -0.00661617
lowerback 2.91174 0.982803 -0.443795
upperback 0.805729 1.2811 -1.02792
thorax -0.792277 0.638341 -0.849114
lowerneck -8.58957 -0.816419 -5.55817
upperneck 14.3572 -0.980177 4.13754
head 5.79468 -0.494428 2.14536
rclavicle -1.00299e-013 1.31198e-014
rhumerus -46.4572 -19.983 -51.0768
rradius 7.92291
rwrist 22.8828
rhand -27.6772 -10.9995
rfingers 7.12502
rthumb -1.07415 -40.9766
lclavicle -1.00299e-013 1.31198e-014
lhumerus -52.1542 26.6803 40.3668
lradius 1.84807
lwrist 6.21526
lhand -25.266 42.8807
lfingers 7.12502
lthumb 1.25465 72.8567
rfemur -2.61824 10.9511 22.7566
rtibia 29.4854
rfoot -25.988 -24.8417
rtoes -3.50984
lfemur -12.2218 7.61855 -8.04683
ltibia 38.2065
lfoot -17.7831 22.9088
ltoes 0.308846
1076
root 2.69246 18.456 1.34037 -0.275629 -46.3709 -0.268402
lowerback 2.90423 0.983837 -0.465443
upperback 0.708764 1.28251 -0.945206
thorax -0.889743 0.639288 -0.753359
lowerneck -8.25241 -0.925516 -5.80446
upperneck 14.3963 -1.13634 4.27917
head 5.75884 -0.577964 2.21968
rclavicle -1.01877e-014 1.98785e-015
rhumerus -44.5823 -20.2223 -51.0814
rradius 8.59456
rwrist 23.7165
rhand -28.5884 -10.4352
rfingers 7.12502
rthumb -1.95414 -40.406
lclavicle -1.01877e-014 1.98785e-015
lhumerus -50.0768 27.2363 41.7603
lradius 1.87577
lwrist 5.21368
lhand -25.9935 43.3301
lfingers 7.12502
lthumb 0.552025 73.3092
rfemur -2.5187 10.7228 22.8458
rtibia 29.619
rfoot -26.131 -24.829
rtoes -3.46707
lfemur -12.026 8.42316 -8.05641
ltibia 38.2153
lfoot -17.2665 23.1676
ltoes 0.210205
1077
root 2.7192 18.4432 1.37422 -0.199119 -45.8749 -0.569089
lowerback 2.79959 0.944362 -0.509091
upperback 0.627021 1.23137 -0.802316
thorax -0.919451 0.614241 -0.579749
lowerneck -7.83154 -0.946919 -6.0641
upperneck 14.4006 -1.17307 4.39142
head 5.6917 -0.607349 2.29577
rclavicle -5.55727e-014 0
rhumerus -41.9247 -20.7059 -51.4171
rradius 8.24094
rwrist 24.4803
rhand -29.8575 -10.6833
rfingers 7.12502
rthumb -3.17982 -40.6393
lclavicle -5.55727e-014 0
lhumerus -48.1767 27.8857 43.1026
lradius 2.01735
lwrist 4.2265
lhand -26.4687 43.7689
lfingers 7.12502
lthumb 0.0930886 73.7487
rfemur -2.35964 10.5955 22.9878
rtibia 29.7729
rfoot -26.3322 -24.8335
rtoes -3.00096
lfemur -11.7396 8.97723 -8.02637
ltibia 38.2198
lfoot -17.1663 23.2012
ltoes -1.18775
